<svg width="697" height="261" viewBox="0 0 697 261" fill="none" xmlns="http://www.w3.org/2000/svg">
<path d="M278.8 60.4066H306.68V171.927H334.56V32.5266H306.68C291.346 32.5266 278.8 45.0726 278.8 60.4066Z" fill="white"/>
<path d="M362.44 171.927H390.32V116.167C390.32 100.833 377.774 88.2866 362.44 88.2866V171.927Z" fill="white"/>
<path d="M418.2 88.2866V171.927H446.08V116.167H473.96V144.047C473.96 159.381 486.506 171.927 501.84 171.927V116.167C501.84 100.833 489.294 88.2866 473.96 88.2866H418.2Z" fill="white"/>
<path d="M669.12 88.2866H641.24V60.4066C641.24 45.0726 628.694 32.5266 613.36 32.5266V144.047H557.6V116.167H585.48V88.2866H557.6C542.266 88.2866 529.72 100.833 529.72 116.167V144.047C529.72 159.381 542.266 171.927 557.6 171.927H641.24V116.167H669.12V144.047C669.12 159.381 681.666 171.927 697 171.927V116.167C697 100.833 684.454 88.2866 669.12 88.2866Z" fill="white"/>
<path d="M362.44 60.4066H390.32C390.32 45.0726 377.774 32.5266 362.44 32.5266V60.4066Z" fill="white"/>
<path fill-rule="evenodd" clip-rule="evenodd" d="M322.267 199.807V217.827H319.713L309.678 205.341V217.827H306.68V199.807H309.234L319.269 212.344V199.807H322.267ZM378.979 217.827H368.162V199.807H378.719V202.767H371.369V207.246H377.937V210.207H371.369V214.866H378.979V217.827ZM424.875 202.767H430.792V217.827H433.998V202.767H439.915V199.807H424.875V202.767ZM508.146 199.807H511.222L506.008 217.827H503.011L498.606 204.801L494.28 217.827H491.26L485.809 199.807H489.406L493.081 212.652L497.147 199.807H500.33L504.498 212.678L508.146 199.807ZM559.779 202.484C558.004 204.269 557.121 206.474 557.121 209.1C557.121 211.863 558.014 214.103 559.803 215.819C561.591 217.535 563.859 218.393 566.605 218.393C569.333 218.393 571.6 217.518 573.408 215.767C575.216 214.017 576.122 211.795 576.122 209.1C576.122 206.354 575.216 204.115 573.408 202.381C571.619 200.665 569.351 199.807 566.605 199.807C563.859 199.807 561.587 200.699 559.779 202.484ZM562.256 213.631C561.09 212.429 560.509 210.919 560.509 209.1C560.509 207.246 561.08 205.727 562.228 204.543C563.394 203.359 564.853 202.767 566.605 202.767C568.329 202.767 569.779 203.359 570.959 204.543C572.139 205.745 572.734 207.264 572.734 209.1C572.734 210.919 572.177 212.429 571.066 213.631C569.969 214.832 568.482 215.433 566.605 215.433C564.867 215.433 563.418 214.832 562.256 213.631ZM625.223 211.134V217.878H622.017V199.858C622.918 199.858 623.903 199.849 624.963 199.832C626.022 199.815 626.891 199.807 627.569 199.807C631.979 199.807 634.186 201.66 634.186 205.367C634.186 206.74 633.833 207.873 633.118 208.765C632.407 209.624 631.589 210.207 630.669 210.516L636.38 217.878H632.495L627.463 211.134H625.223ZM627.411 202.767C627.323 202.767 627.184 202.776 626.993 202.793C626.803 202.793 626.533 202.801 626.185 202.819H625.223V208.173H627.305C628.332 208.173 629.168 207.924 629.809 207.427C630.469 206.929 630.799 206.251 630.799 205.393C630.799 203.642 629.67 202.767 627.411 202.767ZM682.275 217.827H685.481V208.534L692.934 217.827H697L689.026 208.199L696.531 199.807H692.674L685.481 208.353V199.807H682.275V217.827Z" fill="#2F7AEA"/>
<path d="M64.7123 141.967L71.2176 92.9743L14.7023 53.7388L66.3386 71.2219L78.5361 52.5191L123.057 24.8716L221.247 78.947L226.329 161.483L182.621 222.268L148.062 227.553L165.952 194.823V163.313L152.941 138.715L139.727 129.973L119.397 150.912V173.071L103.541 187.911L83.4151 190.351L74.4703 195.433L59.8333 190.757L53.7345 168.802L64.7123 153.352V141.967Z" fill="white"/>
<path d="M154.966 53.333C144.192 51.0965 132.401 51.7066 132.401 51.7066C132.401 51.7066 128.538 69.5963 104.55 74.2718C104.754 74.2718 136.263 85.0465 154.966 53.333Z" fill="#94A6C3"/>
<path d="M164.728 215.56C177.739 205.395 187.497 191.368 191.969 175.512C192.172 174.902 194.002 173.885 195.222 173.072C197.255 171.852 199.288 170.836 199.694 169.209C200.507 164.534 200.914 159.655 200.914 154.776C200.914 152.946 199.084 151.117 197.255 149.287C195.832 148.067 194.409 146.644 194.409 145.628C192.376 127.128 183.838 109.848 170.217 97.2441L168.794 98.6674C182.008 111.068 190.546 127.941 192.376 145.831C192.579 147.457 194.205 149.084 195.832 150.71C197.255 151.93 198.881 153.759 198.881 154.572C198.881 159.248 198.475 163.924 197.661 168.6C197.458 169.413 195.628 170.226 194.205 171.039C192.172 172.055 190.343 173.072 189.936 174.698C185.057 191.978 173.876 207.022 159.036 216.78C161.679 211.087 170.014 192.588 174.486 183.237L173.673 153.15L147.855 128.144L133.218 130.177L117.158 156.199C117.158 156.199 124.679 165.754 114.108 176.934C103.741 187.912 95.609 190.352 95.609 190.352L88.087 186.286C90.3234 183.44 94.7958 179.171 98.2516 176.325C104.147 171.446 110.042 171.039 110.042 165.754C110.246 154.776 98.4551 157.825 98.4551 157.825L94.1857 161.891L92.3563 176.934L83.4115 188.116L82.3948 187.912L67.7578 184.66C67.7578 184.66 76.7026 179.984 78.1259 174.698C79.5487 169.616 75.2798 152.743 75.0763 151.726C75.2798 151.93 79.3457 155.386 81.1751 161.078C84.4277 152.133 88.6971 143.595 89.9168 142.781C91.1366 141.968 107.603 133.227 107.603 133.227L102.114 147.66L106.18 145.424L115.938 121.436C115.938 121.436 125.493 116.76 132.608 116.76C145.415 116.557 164.322 100.903 155.783 72.8491C158.223 73.8658 200.507 95.0081 207.826 136.48C213.315 168.396 195.222 198.28 164.728 215.56Z" fill="#94A6C3"/>
<path d="M116.347 57.8069C121.023 52.3178 119.193 44.1863 119.193 44.1863L105.572 64.3122C105.369 64.3122 110.451 64.5153 116.347 57.8069Z" fill="#1B314F"/>
<path d="M70.6085 167.788L72.2349 159.656C72.2349 159.656 65.526 171.447 64.9164 173.074C64.3063 174.903 65.323 178.156 67.9655 177.953C70.6085 177.749 73.8612 173.887 73.8612 171.041C73.8612 167.381 70.6085 167.788 70.6085 167.788Z" fill="#1B314F"/>
<path d="M191.362 38.4943C191.362 38.4943 201.527 38.9009 212.098 40.1207C188.313 21.4179 165.748 15.929 147.451 15.929C122.243 15.929 105.167 26.2969 104.15 26.9067L112.079 14.3026C112.079 14.3026 80.365 11.2533 69.1842 44.7964C66.3381 37.6812 63.6951 27.3133 63.6951 27.3133C63.6951 27.3133 47.2287 41.747 54.9538 65.7355C36.0477 58.8236 9.00989 49.2687 7.99343 49.0656C6.57039 48.8621 6.16381 49.4722 6.16381 49.4722C6.16381 49.4722 5.75722 50.0818 6.97697 51.0985C9.21318 52.9279 51.9042 84.4384 61.2556 90.5371C59.2227 97.8556 59.2227 101.311 61.2556 104.768C64.1017 109.443 64.3052 111.882 63.8986 115.339C63.4921 118.794 59.8328 148.679 59.0196 152.338C58.2065 155.997 49.6682 169.008 50.0748 172.87C50.4814 176.733 55.767 193.199 60.4429 195.029C63.8986 196.249 72.4369 198.891 78.1291 198.891C80.162 198.891 81.9918 198.485 82.805 197.672C86.2607 194.622 87.2769 194.012 89.7169 194.012C89.92 194.012 90.1235 194.012 90.3266 194.012C91.3432 194.012 92.563 194.216 93.9858 194.216C97.2385 194.216 101.508 193.606 104.557 190.76C109.029 186.287 116.754 180.189 119.194 177.342C122.244 173.48 123.87 168.195 123.056 162.909C122.447 158.03 125.089 153.761 128.139 149.492C132.002 144.409 139.117 135.261 139.117 135.261C153.144 145.832 161.885 161.892 161.885 179.782C161.885 211.495 134.238 237.11 100.085 237.11C94.799 237.11 89.7169 236.501 84.6344 235.281C100.288 240.769 113.502 242.599 124.276 242.599C147.248 242.599 159.446 234.264 159.446 234.264C159.446 234.264 155.176 239.753 148.264 246.055C148.468 246.055 148.468 246.055 148.468 246.055C186.483 240.769 204.983 209.462 204.983 209.462C204.983 209.462 203.56 219.627 201.73 226.539C252.35 188.524 243.812 140.953 243.608 139.327C244.015 139.937 249.097 146.035 251.74 149.288C259.872 65.532 191.362 38.4943 191.362 38.4943ZM113.502 172.26C112.689 173.277 109.233 176.326 106.793 178.562C104.354 180.799 101.711 183.035 99.678 185.068C98.8648 185.881 97.2385 186.287 94.799 186.287C93.9858 186.287 93.1726 186.287 92.5625 186.287C92.1564 186.287 91.7498 186.287 91.3432 186.287C90.9367 186.287 90.7331 186.287 90.5296 186.287C89.92 186.287 89.3099 186.287 88.7002 186.287C91.7498 182.221 100.694 172.87 103.744 170.837C107.403 168.398 109.232 165.958 106.996 161.689C104.76 157.42 98.8648 158.437 98.8648 158.437C98.8648 158.437 102.321 157.013 105.37 157.013C101.508 155.997 96.6288 157.013 94.3924 159.25C91.9529 161.486 92.3595 169.414 91.3432 174.496C90.3266 179.782 86.8704 182.425 81.5853 187.304C78.7387 189.947 76.7063 190.76 75.0799 190.76C71.6237 190.15 67.5579 189.133 64.7118 188.117C62.6789 185.474 59.6293 176.733 58.8161 173.074C59.4262 171.041 61.8657 166.771 63.0855 164.332C65.525 159.656 66.9482 157.013 67.3544 154.574C68.1675 151.118 70.8106 129.772 71.8272 120.827C74.4698 124.284 78.1291 129.976 77.3159 133.635C83.2116 125.3 78.9422 117.168 76.9093 113.915C75.0799 110.663 72.6404 104.157 74.6733 97.2455C76.7062 90.3336 84.0247 71.2242 84.0247 71.2242C84.0247 71.2242 86.4642 75.4935 89.92 74.6804C93.3762 73.8672 121.227 31.989 121.227 31.989C121.227 31.989 128.749 48.4555 120.82 60.4499C112.689 72.4439 104.76 74.6804 104.76 74.6804C104.76 74.6804 115.941 76.7133 126.309 69.1913C130.578 79.1528 134.644 89.5204 134.848 90.9437C134.238 92.3665 126.106 111.882 125.293 113.102C124.886 113.509 122.04 114.322 120.007 114.729C116.551 115.745 114.519 116.355 113.705 116.965C112.282 118.185 105.777 136.074 102.727 144.816C99.0683 145.832 95.4086 147.865 92.7661 151.931C94.1893 150.915 98.6613 150.305 101.914 149.898C104.76 149.695 113.502 154.371 115.738 163.112C115.738 163.316 115.738 163.316 115.738 163.519C116.145 166.771 115.128 169.821 113.502 172.26ZM94.3924 174.7C96.2222 172.057 96.0187 167.584 96.2222 166.162C96.4253 164.738 96.8319 162.096 98.4582 161.689C100.085 161.283 103.947 161.892 103.947 164.738C103.947 167.381 101.101 167.991 99.0683 169.821C97.6451 171.244 94.799 174.293 94.3924 174.7ZM175.506 135.871C177.538 125.503 177.742 116.558 177.132 109.24C185.06 119.811 189.939 132.618 191.362 145.832C191.566 147.459 193.192 149.085 194.818 150.711C196.241 151.931 197.868 153.558 197.868 154.574C197.868 159.25 197.461 163.925 196.648 168.601C196.445 169.211 194.615 170.227 193.192 171.041C191.159 172.057 189.33 173.074 188.923 174.7C184.451 190.353 174.896 204.177 162.088 213.935C180.995 194.216 190.143 161.689 175.506 135.871ZM162.698 215.765C175.912 205.6 186.077 191.37 190.549 175.31C190.753 174.7 192.582 173.683 193.802 172.87C195.835 171.854 197.868 170.634 198.274 169.008C199.087 164.332 199.494 159.453 199.494 154.574C199.494 152.744 197.665 150.915 195.835 149.085C194.818 147.865 193.192 146.442 193.192 145.426C191.566 130.585 185.67 116.558 176.522 104.971C172.456 80.5756 156.193 73.054 155.786 72.8505C156.193 73.4606 166.764 88.7073 159.446 106.597C151.924 124.69 132.611 121.844 130.985 122.047C129.359 122.047 123.056 130.179 115.128 145.222C114.112 144.816 109.843 143.8 104.964 144.613C108.623 134.448 114.112 120.014 115.128 118.794C115.535 118.388 118.584 117.575 120.617 116.965C124.48 115.948 126.309 115.339 126.919 114.526C127.326 113.915 129.359 109.24 131.391 104.361C133.221 104.361 137.897 103.954 138.303 103.751C138.71 103.344 142.572 93.3832 142.572 92.1634C142.572 91.1467 134.644 71.4277 131.595 63.9057C133.018 62.2793 134.441 60.2464 135.864 58.0104C177.538 62.4829 210.065 97.8556 210.065 140.75C210.065 173.683 190.753 202.348 162.698 215.765Z" fill="#1B314F"/>
<path d="M108.631 105.987C112.494 101.515 110.461 93.1796 103.345 91.7568C105.175 87.4875 107.818 78.9492 107.818 78.9492C107.818 78.9492 87.0821 111.476 85.2527 112.086C83.4228 112.696 81.5934 105.581 81.5934 105.581C77.7306 120.421 88.0987 122.454 89.3185 117.778C95.0107 116.355 104.769 110.256 108.631 105.987Z" fill="#1B314F"/>
<path d="M90.9367 113.917L101.508 95.824C101.508 95.824 107.607 98.8731 104.557 103.752C100.695 109.444 90.9367 113.917 90.9367 113.917Z" fill="#FFD923"/>
<path d="M221.65 197.672C218.6 201.738 215.144 206.007 211.078 210.073C237.303 159.656 212.298 113.509 211.282 111.679C213.111 113.509 214.941 115.542 216.567 117.372C236.693 139.734 239.133 173.277 221.65 197.672Z" fill="#D82122"/>
<path d="M246.045 132.822C236.896 108.224 223.886 87.2843 195.222 68.3784C167.574 50.0822 137.893 51.505 136.267 51.7085C136.064 51.7085 135.861 51.7085 135.861 51.7085C136.877 51.3019 137.893 51.0984 138.91 50.8953C145.212 48.8624 153.344 47.2361 161.475 46.2195C183.024 43.1702 204.776 50.4888 219.617 66.142C219.82 66.3455 219.82 66.3455 220.023 66.5486C236.896 84.4382 245.638 106.8 246.045 132.822Z" fill="#D82122"/>
<path d="M188.716 32.1931C158.426 26.5009 138.91 29.347 124.883 34.6326C124.476 33.0062 123.053 29.7536 121.833 27.1108C117.564 32.1931 113.092 38.2918 110.246 42.1544C102.521 47.4398 99.2681 52.5223 99.2681 52.5223C103.74 37.2754 116.751 25.891 132.608 23.0449C137.08 22.2318 141.959 21.8252 147.245 21.8252C161.272 22.0285 175.299 25.4844 188.716 32.1931Z" fill="#D82122"/>
<path d="M76.702 71.2252C52.9166 70.412 60.8452 42.7643 61.2518 41.1379C61.2518 41.3412 62.8781 62.89 76.702 71.2252Z" fill="#D82122"/>
<path d="M100.087 21.4182C81.791 32.3959 85.4502 58.6204 85.4502 58.6204C67.9671 31.9893 98.6644 22.0281 100.087 21.4182Z" fill="#D82122"/>
<path d="M70.0011 78.5421C71.2209 79.5588 72.4406 81.3882 71.0178 84.0312C70.2046 85.454 68.9849 85.2509 67.155 84.4378C64.7155 83.218 50.0785 74.6798 36.8647 65.938C51.9084 71.2236 67.155 76.9157 69.5945 78.1355C69.5945 78.1355 69.798 78.339 70.0011 78.5421Z" fill="white"/>
</svg>
