<svg width="961" height="549" viewBox="0 0 961 549" fill="none" xmlns="http://www.w3.org/2000/svg">
<path d="M52.0692 475.643H387.405L616.893 318.384L852.647 160.768" stroke="#A6CEE3" stroke-width="7.75842"/>
<path d="M387.405 478.391H52.0692V548.183H852.647V163.516L614.124 325.352L387.405 478.391Z" fill="url(#paint0_linear_1_224)"/>
<path d="M126.409 469.142C125.022 469.142 124.015 468.762 123.387 468.003C122.764 467.239 122.453 466.31 122.453 465.218H123.993C124.059 465.977 124.201 466.529 124.419 466.873C124.801 467.49 125.492 467.798 126.491 467.798C127.267 467.798 127.889 467.591 128.359 467.176C128.829 466.761 129.063 466.226 129.063 465.57C129.063 464.762 128.815 464.197 128.318 463.875C127.826 463.553 127.141 463.392 126.262 463.392C126.164 463.392 126.063 463.394 125.959 463.4C125.861 463.4 125.76 463.402 125.656 463.408V462.106C125.809 462.122 125.937 462.133 126.041 462.138C126.145 462.144 126.257 462.147 126.377 462.147C126.928 462.147 127.381 462.059 127.736 461.884C128.359 461.579 128.67 461.033 128.67 460.246C128.67 459.662 128.463 459.211 128.048 458.895C127.633 458.578 127.149 458.42 126.598 458.42C125.615 458.42 124.935 458.747 124.558 459.403C124.351 459.763 124.233 460.276 124.206 460.942H122.748C122.748 460.069 122.923 459.326 123.272 458.714C123.873 457.622 124.93 457.076 126.442 457.076C127.638 457.076 128.564 457.344 129.219 457.879C129.874 458.409 130.202 459.179 130.202 460.189C130.202 460.91 130.008 461.494 129.62 461.942C129.38 462.22 129.069 462.439 128.687 462.597C129.304 462.766 129.784 463.094 130.128 463.58C130.478 464.061 130.652 464.65 130.652 465.349C130.652 466.469 130.284 467.381 129.547 468.085C128.809 468.79 127.764 469.142 126.409 469.142ZM135.927 457.093C137.446 457.093 138.543 457.718 139.22 458.968C139.745 459.935 140.007 461.259 140.007 462.941C140.007 464.536 139.769 465.854 139.294 466.897C138.606 468.394 137.481 469.142 135.919 469.142C134.51 469.142 133.462 468.53 132.774 467.307C132.201 466.286 131.914 464.915 131.914 463.195C131.914 461.863 132.086 460.719 132.43 459.763C133.074 457.983 134.24 457.093 135.927 457.093ZM135.911 467.798C136.676 467.798 137.284 467.46 137.738 466.783C138.191 466.106 138.418 464.844 138.418 462.998C138.418 461.666 138.254 460.571 137.926 459.714C137.598 458.851 136.962 458.42 136.018 458.42C135.149 458.42 134.513 458.829 134.109 459.648C133.71 460.462 133.511 461.663 133.511 463.252C133.511 464.448 133.639 465.409 133.896 466.136C134.289 467.244 134.961 467.798 135.911 467.798ZM145.265 457.093C146.783 457.093 147.881 457.718 148.558 458.968C149.082 459.935 149.345 461.259 149.345 462.941C149.345 464.536 149.107 465.854 148.632 466.897C147.944 468.394 146.819 469.142 145.257 469.142C143.848 469.142 142.8 468.53 142.112 467.307C141.538 466.286 141.252 464.915 141.252 463.195C141.252 461.863 141.424 460.719 141.768 459.763C142.412 457.983 143.578 457.093 145.265 457.093ZM145.249 467.798C146.013 467.798 146.622 467.46 147.076 466.783C147.529 466.106 147.755 464.844 147.755 462.998C147.755 461.666 147.592 460.571 147.264 459.714C146.936 458.851 146.3 458.42 145.355 458.42C144.487 458.42 143.851 458.829 143.447 459.648C143.048 460.462 142.849 461.663 142.849 463.252C142.849 464.448 142.977 465.409 143.234 466.136C143.627 467.244 144.299 467.798 145.249 467.798Z" fill="#A3A3A3"/>
<path d="M431.301 462.007C431.951 462.007 432.459 461.827 432.825 461.467C433.191 461.101 433.373 460.667 433.373 460.164C433.373 459.727 433.199 459.326 432.849 458.96C432.5 458.594 431.967 458.411 431.252 458.411C430.542 458.411 430.029 458.594 429.712 458.96C429.395 459.326 429.237 459.755 429.237 460.246C429.237 460.798 429.442 461.229 429.851 461.54C430.261 461.852 430.744 462.007 431.301 462.007ZM431.391 467.815C432.074 467.815 432.639 467.632 433.087 467.266C433.54 466.895 433.767 466.343 433.767 465.611C433.767 464.852 433.535 464.276 433.07 463.883C432.606 463.49 432.011 463.293 431.285 463.293C430.58 463.293 430.004 463.495 429.556 463.899C429.114 464.298 428.893 464.852 428.893 465.562C428.893 466.174 429.095 466.704 429.499 467.151C429.909 467.594 430.539 467.815 431.391 467.815ZM429.294 462.572C428.885 462.398 428.565 462.193 428.336 461.958C427.905 461.521 427.689 460.953 427.689 460.254C427.689 459.381 428.006 458.63 428.639 458.002C429.272 457.374 430.171 457.06 431.334 457.06C432.459 457.06 433.341 457.357 433.98 457.953C434.618 458.542 434.938 459.233 434.938 460.025C434.938 460.757 434.752 461.349 434.381 461.802C434.173 462.059 433.851 462.31 433.414 462.556C433.9 462.78 434.283 463.037 434.561 463.326C435.08 463.872 435.339 464.582 435.339 465.456C435.339 466.488 434.993 467.364 434.299 468.085C433.606 468.8 432.625 469.158 431.358 469.158C430.217 469.158 429.251 468.85 428.459 468.233C427.672 467.61 427.279 466.709 427.279 465.529C427.279 464.836 427.449 464.238 427.787 463.736C428.126 463.228 428.628 462.84 429.294 462.572ZM440.614 457.093C442.132 457.093 443.23 457.718 443.907 458.968C444.431 459.935 444.694 461.259 444.694 462.941C444.694 464.536 444.456 465.854 443.981 466.897C443.293 468.394 442.168 469.142 440.606 469.142C439.197 469.142 438.149 468.53 437.461 467.307C436.887 466.286 436.601 464.915 436.601 463.195C436.601 461.863 436.773 460.719 437.117 459.763C437.761 457.983 438.927 457.093 440.614 457.093ZM440.598 467.798C441.362 467.798 441.971 467.46 442.425 466.783C442.878 466.106 443.104 464.844 443.104 462.998C443.104 461.666 442.941 460.571 442.613 459.714C442.285 458.851 441.649 458.42 440.704 458.42C439.836 458.42 439.2 458.829 438.796 459.648C438.397 460.462 438.198 461.663 438.198 463.252C438.198 464.448 438.326 465.409 438.583 466.136C438.976 467.244 439.648 467.798 440.598 467.798ZM449.952 457.093C451.47 457.093 452.568 457.718 453.245 458.968C453.769 459.935 454.031 461.259 454.031 462.941C454.031 464.536 453.794 465.854 453.319 466.897C452.631 468.394 451.506 469.142 449.944 469.142C448.535 469.142 447.487 468.53 446.799 467.307C446.225 466.286 445.939 464.915 445.939 463.195C445.939 461.863 446.111 460.719 446.455 459.763C447.099 457.983 448.265 457.093 449.952 457.093ZM449.936 467.798C450.7 467.798 451.309 467.46 451.762 466.783C452.216 466.106 452.442 464.844 452.442 462.998C452.442 461.666 452.278 460.571 451.951 459.714C451.623 458.851 450.987 458.42 450.042 458.42C449.174 458.42 448.538 458.829 448.134 459.648C447.735 460.462 447.536 461.663 447.536 463.252C447.536 464.448 447.664 465.409 447.921 466.136C448.314 467.244 448.986 467.798 449.936 467.798Z" fill="#A3A3A3"/>
<path d="M813.246 468.822C813.3 467.812 813.508 466.933 813.868 466.185C814.234 465.437 814.944 464.757 815.998 464.145L817.571 463.236C818.275 462.826 818.769 462.477 819.053 462.187C819.501 461.734 819.725 461.215 819.725 460.631C819.725 459.949 819.52 459.408 819.111 459.009C818.701 458.605 818.155 458.403 817.472 458.403C816.462 458.403 815.763 458.785 815.375 459.55C815.168 459.96 815.053 460.527 815.031 461.254H813.532C813.549 460.233 813.737 459.4 814.098 458.755C814.737 457.62 815.864 457.052 817.481 457.052C818.824 457.052 819.804 457.415 820.421 458.141C821.044 458.867 821.355 459.676 821.355 460.566C821.355 461.505 821.025 462.308 820.364 462.974C819.982 463.362 819.296 463.831 818.308 464.383L817.186 465.005C816.651 465.3 816.23 465.581 815.924 465.849C815.378 466.324 815.034 466.851 814.892 467.43H821.298V468.822H813.246ZM826.597 457.093C828.115 457.093 829.213 457.718 829.89 458.968C830.414 459.935 830.676 461.259 830.676 462.941C830.676 464.536 830.439 465.854 829.964 466.897C829.276 468.394 828.151 469.142 826.589 469.142C825.18 469.142 824.132 468.53 823.444 467.307C822.87 466.286 822.584 464.915 822.584 463.195C822.584 461.863 822.756 460.719 823.1 459.763C823.744 457.983 824.91 457.093 826.597 457.093ZM826.581 467.798C827.345 467.798 827.954 467.46 828.408 466.783C828.861 466.106 829.087 464.844 829.087 462.998C829.087 461.666 828.924 460.571 828.596 459.714C828.268 458.851 827.632 458.42 826.687 458.42C825.819 458.42 825.183 458.829 824.779 459.648C824.38 460.462 824.181 461.663 824.181 463.252C824.181 464.448 824.309 465.409 824.566 466.136C824.959 467.244 825.631 467.798 826.581 467.798ZM835.935 457.093C837.453 457.093 838.551 457.718 839.228 458.968C839.752 459.935 840.014 461.259 840.014 462.941C840.014 464.536 839.777 465.854 839.302 466.897C838.614 468.394 837.489 469.142 835.927 469.142C834.518 469.142 833.47 468.53 832.782 467.307C832.208 466.286 831.921 464.915 831.921 463.195C831.921 461.863 832.093 460.719 832.438 459.763C833.082 457.983 834.248 457.093 835.935 457.093ZM835.919 467.798C836.683 467.798 837.292 467.46 837.745 466.783C838.199 466.106 838.425 464.844 838.425 462.998C838.425 461.666 838.261 460.571 837.934 459.714C837.606 458.851 836.97 458.42 836.025 458.42C835.157 458.42 834.521 458.829 834.117 459.648C833.718 460.462 833.519 461.663 833.519 463.252C833.519 464.448 833.647 465.409 833.904 466.136C834.297 467.244 834.969 467.798 835.919 467.798ZM845.273 457.093C846.791 457.093 847.889 457.718 848.566 458.968C849.09 459.935 849.352 461.259 849.352 462.941C849.352 464.536 849.115 465.854 848.64 466.897C847.951 468.394 846.827 469.142 845.265 469.142C843.856 469.142 842.807 468.53 842.119 467.307C841.546 466.286 841.259 464.915 841.259 463.195C841.259 461.863 841.431 460.719 841.775 459.763C842.42 457.983 843.586 457.093 845.273 457.093ZM845.257 467.798C846.021 467.798 846.63 467.46 847.083 466.783C847.536 466.106 847.763 464.844 847.763 462.998C847.763 461.666 847.599 460.571 847.272 459.714C846.944 458.851 846.308 458.42 845.363 458.42C844.495 458.42 843.859 458.829 843.455 459.648C843.056 460.462 842.857 461.663 842.857 463.252C842.857 464.448 842.985 465.409 843.242 466.136C843.635 467.244 844.306 467.798 845.257 467.798Z" fill="#A3A3A3"/>
<path d="M9.48367 392.513C8.09664 392.513 7.08914 392.133 6.46116 391.374C5.83863 390.61 5.52737 389.681 5.52737 388.589H7.0673C7.13283 389.348 7.2748 389.9 7.49323 390.244C7.87548 390.861 8.56627 391.169 9.56558 391.169C10.341 391.169 10.9635 390.962 11.4332 390.547C11.9028 390.132 12.1376 389.597 12.1376 388.941C12.1376 388.133 11.8891 387.568 11.3922 387.246C10.9007 386.924 10.2154 386.762 9.33623 386.762C9.23794 386.762 9.13691 386.765 9.03316 386.771C8.93487 386.771 8.83384 386.773 8.73009 386.779V385.476C8.88299 385.493 9.01132 385.504 9.11507 385.509C9.21882 385.515 9.33077 385.517 9.45091 385.517C10.0024 385.517 10.4557 385.43 10.8106 385.255C11.4332 384.949 11.7444 384.403 11.7444 383.617C11.7444 383.033 11.5369 382.582 11.1219 382.266C10.7069 381.949 10.2236 381.79 9.67207 381.79C8.68913 381.79 8.00927 382.118 7.63248 382.773C7.42497 383.134 7.30757 383.647 7.28027 384.313H5.82225C5.82225 383.44 5.99699 382.697 6.34648 382.085C6.94716 380.993 8.00381 380.447 9.51643 380.447C10.7123 380.447 11.6379 380.715 12.2932 381.25C12.9485 381.78 13.2761 382.549 13.2761 383.56C13.2761 384.281 13.0823 384.865 12.6946 385.313C12.4543 385.591 12.143 385.81 11.7608 385.968C12.3779 386.137 12.8584 386.465 13.2024 386.951C13.5519 387.431 13.7267 388.021 13.7267 388.72C13.7267 389.84 13.3581 390.751 12.6209 391.456C11.8837 392.16 10.8379 392.513 9.48367 392.513ZM19.0017 380.463C20.5198 380.463 21.6174 381.089 22.2945 382.339C22.8188 383.306 23.0809 384.63 23.0809 386.312C23.0809 387.906 22.8433 389.225 22.3683 390.268C21.6802 391.764 20.5553 392.513 18.9935 392.513C17.5847 392.513 16.5362 391.901 15.8482 390.678C15.2748 389.657 14.9881 388.286 14.9881 386.566C14.9881 385.233 15.1601 384.089 15.5041 383.134C16.1485 381.354 17.3144 380.463 19.0017 380.463ZM18.9853 391.169C19.7498 391.169 20.3587 390.831 20.812 390.154C21.2652 389.476 21.4918 388.215 21.4918 386.369C21.4918 385.037 21.328 383.942 21.0004 383.085C20.6727 382.222 20.0365 381.79 19.0918 381.79C18.2236 381.79 17.5874 382.2 17.1833 383.019C16.7847 383.833 16.5853 385.034 16.5853 386.623C16.5853 387.819 16.7137 388.78 16.9703 389.506C17.3635 390.615 18.0352 391.169 18.9853 391.169ZM28.3396 380.463C29.8577 380.463 30.9553 381.089 31.6324 382.339C32.1566 383.306 32.4187 384.63 32.4187 386.312C32.4187 387.906 32.1812 389.225 31.7061 390.268C31.0181 391.764 29.8931 392.513 28.3314 392.513C26.9225 392.513 25.8741 391.901 25.186 390.678C24.6126 389.657 24.3259 388.286 24.3259 386.566C24.3259 385.233 24.4979 384.089 24.842 383.134C25.4863 381.354 26.6522 380.463 28.3396 380.463ZM28.3232 391.169C29.0877 391.169 29.6966 390.831 30.1498 390.154C30.603 389.476 30.8297 388.215 30.8297 386.369C30.8297 385.037 30.6658 383.942 30.3382 383.085C30.0106 382.222 29.3744 381.79 28.4297 381.79C27.5614 381.79 26.9252 382.2 26.5211 383.019C26.1225 383.833 25.9232 385.034 25.9232 386.623C25.9232 387.819 26.0515 388.78 26.3082 389.506C26.7014 390.615 27.373 391.169 28.3232 391.169Z" fill="#A3A3A3"/>
<path d="M10.6714 325.436V320.12L6.91167 325.436H10.6714ZM10.696 329.589V326.722H5.55194V325.28L10.9253 317.826H12.1703V325.436H13.8987V326.722H12.1703V329.589H10.696ZM19.0017 317.859C20.5198 317.859 21.6174 318.484 22.2945 319.735C22.8188 320.701 23.0809 322.025 23.0809 323.707C23.0809 325.302 22.8433 326.621 22.3683 327.664C21.6802 329.16 20.5553 329.908 18.9935 329.908C17.5847 329.908 16.5362 329.296 15.8482 328.073C15.2748 327.052 14.9881 325.681 14.9881 323.961C14.9881 322.629 15.1601 321.485 15.5041 320.529C16.1485 318.749 17.3144 317.859 19.0017 317.859ZM18.9853 328.565C19.7498 328.565 20.3587 328.226 20.812 327.549C21.2652 326.872 21.4918 325.61 21.4918 323.765C21.4918 322.432 21.328 321.337 21.0004 320.48C20.6727 319.617 20.0365 319.186 19.0918 319.186C18.2236 319.186 17.5874 319.595 17.1833 320.414C16.7847 321.228 16.5853 322.429 16.5853 324.019C16.5853 325.214 16.7137 326.176 16.9703 326.902C17.3635 328.01 18.0352 328.565 18.9853 328.565ZM28.3396 317.859C29.8577 317.859 30.9553 318.484 31.6324 319.735C32.1566 320.701 32.4187 322.025 32.4187 323.707C32.4187 325.302 32.1812 326.621 31.7061 327.664C31.0181 329.16 29.8931 329.908 28.3314 329.908C26.9225 329.908 25.8741 329.296 25.186 328.073C24.6126 327.052 24.3259 325.681 24.3259 323.961C24.3259 322.629 24.4979 321.485 24.842 320.529C25.4863 318.749 26.6522 317.859 28.3396 317.859ZM28.3232 328.565C29.0877 328.565 29.6966 328.226 30.1498 327.549C30.603 326.872 30.8297 325.61 30.8297 323.765C30.8297 322.432 30.6658 321.337 30.3382 320.48C30.0106 319.617 29.3744 319.186 28.4297 319.186C27.5614 319.186 26.9252 319.595 26.5211 320.414C26.1225 321.228 25.9232 322.429 25.9232 324.019C25.9232 325.214 26.0515 326.176 26.3082 326.902C26.7014 328.01 27.373 328.565 28.3232 328.565Z" fill="#A3A3A3"/>
<path d="M7.19835 263.994C7.29665 264.835 7.68709 265.417 8.36968 265.739C8.71917 265.903 9.12326 265.984 9.58196 265.984C10.4557 265.984 11.1028 265.706 11.5233 265.149C11.9437 264.592 12.154 263.975 12.154 263.298C12.154 262.479 11.9028 261.845 11.4004 261.397C10.9035 260.95 10.3055 260.726 9.60654 260.726C9.09869 260.726 8.66183 260.824 8.29596 261.021C7.93555 261.217 7.62702 261.49 7.37037 261.84L6.09256 261.766L6.98539 255.451H13.0796V256.876H8.09118L7.59153 260.136C7.86456 259.929 8.12395 259.773 8.36968 259.669C8.80654 259.489 9.31166 259.399 9.88503 259.399C10.9608 259.399 11.8727 259.746 12.6209 260.439C13.369 261.133 13.743 262.012 13.743 263.077C13.743 264.185 13.399 265.163 12.711 266.009C12.0284 266.855 10.9362 267.279 9.43452 267.279C8.4789 267.279 7.63248 267.011 6.89528 266.476C6.16355 265.935 5.75399 265.108 5.66662 263.994H7.19835ZM19.0017 255.254C20.5198 255.254 21.6174 255.879 22.2945 257.13C22.8188 258.096 23.0809 259.421 23.0809 261.103C23.0809 262.697 22.8433 264.016 22.3683 265.059C21.6802 266.555 20.5553 267.303 18.9935 267.303C17.5847 267.303 16.5362 266.692 15.8482 265.468C15.2748 264.447 14.9881 263.077 14.9881 261.356C14.9881 260.024 15.1601 258.88 15.5041 257.924C16.1485 256.144 17.3144 255.254 19.0017 255.254ZM18.9853 265.96C19.7498 265.96 20.3587 265.621 20.812 264.944C21.2652 264.267 21.4918 263.006 21.4918 261.16C21.4918 259.827 21.328 258.733 21.0004 257.875C20.6727 257.012 20.0365 256.581 19.0918 256.581C18.2236 256.581 17.5874 256.991 17.1833 257.81C16.7847 258.623 16.5853 259.825 16.5853 261.414C16.5853 262.61 16.7137 263.571 16.9703 264.297C17.3635 265.406 18.0352 265.96 18.9853 265.96ZM28.3396 255.254C29.8577 255.254 30.9553 255.879 31.6324 257.13C32.1566 258.096 32.4187 259.421 32.4187 261.103C32.4187 262.697 32.1812 264.016 31.7061 265.059C31.0181 266.555 29.8931 267.303 28.3314 267.303C26.9225 267.303 25.8741 266.692 25.186 265.468C24.6126 264.447 24.3259 263.077 24.3259 261.356C24.3259 260.024 24.4979 258.88 24.842 257.924C25.4863 256.144 26.6522 255.254 28.3396 255.254ZM28.3232 265.96C29.0877 265.96 29.6966 265.621 30.1498 264.944C30.603 264.267 30.8297 263.006 30.8297 261.16C30.8297 259.827 30.6658 258.733 30.3382 257.875C30.0106 257.012 29.3744 256.581 28.4297 256.581C27.5614 256.581 26.9252 256.991 26.5211 257.81C26.1225 258.623 25.9232 259.825 25.9232 261.414C25.9232 262.61 26.0515 263.571 26.3082 264.297C26.7014 265.406 27.373 265.96 28.3232 265.96Z" fill="#A3A3A3"/>
<path d="M10.0325 192.6C11.343 192.6 12.255 192.942 12.7683 193.624C13.2871 194.301 13.5465 195 13.5465 195.721H12.0884C12.0011 195.257 11.8618 194.894 11.6707 194.632C11.3157 194.14 10.7779 193.894 10.057 193.894C9.23248 193.894 8.57719 194.277 8.09118 195.041C7.60518 195.8 7.33487 196.89 7.28027 198.309C7.61883 197.812 8.04477 197.441 8.55808 197.195C9.0277 196.977 9.55193 196.868 10.1308 196.868C11.1137 196.868 11.971 197.182 12.7028 197.81C13.4345 198.438 13.8004 199.374 13.8004 200.619C13.8004 201.684 13.4536 202.629 12.7601 203.453C12.0666 204.273 11.0782 204.682 9.79493 204.682C8.69732 204.682 7.74989 204.267 6.95262 203.437C6.15535 202.602 5.75672 201.198 5.75672 199.227C5.75672 197.769 5.9342 196.532 6.28914 195.516C6.97173 193.572 8.21951 192.6 10.0325 192.6ZM9.92599 203.372C10.7014 203.372 11.2803 203.112 11.6625 202.593C12.0502 202.069 12.2441 201.452 12.2441 200.742C12.2441 200.142 12.0721 199.571 11.728 199.03C11.384 198.484 10.7588 198.211 9.85227 198.211C9.21882 198.211 8.66183 198.421 8.18129 198.842C7.7062 199.262 7.46866 199.896 7.46866 200.742C7.46866 201.485 7.68436 202.11 8.11576 202.618C8.55262 203.12 9.15603 203.372 9.92599 203.372ZM19.0017 192.649C20.5198 192.649 21.6174 193.275 22.2945 194.525C22.8188 195.492 23.0809 196.816 23.0809 198.498C23.0809 200.092 22.8433 201.411 22.3683 202.454C21.6802 203.95 20.5553 204.698 18.9935 204.698C17.5847 204.698 16.5362 204.087 15.8482 202.864C15.2748 201.843 14.9881 200.472 14.9881 198.752C14.9881 197.419 15.1601 196.275 15.5041 195.32C16.1485 193.539 17.3144 192.649 19.0017 192.649ZM18.9853 203.355C19.7498 203.355 20.3587 203.017 20.812 202.339C21.2652 201.662 21.4918 200.401 21.4918 198.555C21.4918 197.223 21.328 196.128 21.0004 195.271C20.6727 194.408 20.0365 193.976 19.0918 193.976C18.2236 193.976 17.5874 194.386 17.1833 195.205C16.7847 196.019 16.5853 197.22 16.5853 198.809C16.5853 200.005 16.7137 200.966 16.9703 201.692C17.3635 202.801 18.0352 203.355 18.9853 203.355ZM28.3396 192.649C29.8577 192.649 30.9553 193.275 31.6324 194.525C32.1566 195.492 32.4187 196.816 32.4187 198.498C32.4187 200.092 32.1812 201.411 31.7061 202.454C31.0181 203.95 29.8931 204.698 28.3314 204.698C26.9225 204.698 25.8741 204.087 25.186 202.864C24.6126 201.843 24.3259 200.472 24.3259 198.752C24.3259 197.419 24.4979 196.275 24.842 195.32C25.4863 193.539 26.6522 192.649 28.3396 192.649ZM28.3232 203.355C29.0877 203.355 29.6966 203.017 30.1498 202.339C30.603 201.662 30.8297 200.401 30.8297 198.555C30.8297 197.223 30.6658 196.128 30.3382 195.271C30.0106 194.408 29.3744 193.976 28.4297 193.976C27.5614 193.976 26.9252 194.386 26.5211 195.205C26.1225 196.019 25.9232 197.22 25.9232 198.809C25.9232 200.005 26.0515 200.966 26.3082 201.692C26.7014 202.801 27.373 203.355 28.3232 203.355Z" fill="#A3A3A3"/>
<path d="M13.8987 130.242V131.528C13.5219 131.894 13.0195 132.53 12.3915 133.437C11.769 134.343 11.2175 135.321 10.7369 136.369C10.2618 137.39 9.90142 138.321 9.65568 139.162C9.49732 139.703 9.29254 140.574 9.04135 141.775H7.41132C7.78265 139.536 8.60176 137.308 9.86865 135.091C10.6168 133.792 11.4031 132.67 12.2277 131.725H5.74034V130.242H13.8987ZM19.0017 130.046C20.5198 130.046 21.6174 130.671 22.2945 131.921C22.8188 132.888 23.0809 134.212 23.0809 135.894C23.0809 137.489 22.8433 138.807 22.3683 139.85C21.6802 141.347 20.5553 142.095 18.9935 142.095C17.5847 142.095 16.5362 141.483 15.8482 140.26C15.2748 139.239 14.9881 137.868 14.9881 136.148C14.9881 134.816 15.1601 133.672 15.5041 132.716C16.1485 130.936 17.3144 130.046 19.0017 130.046ZM18.9853 140.751C19.7498 140.751 20.3587 140.413 20.812 139.736C21.2652 139.059 21.4918 137.797 21.4918 135.951C21.4918 134.619 21.328 133.524 21.0004 132.667C20.6727 131.804 20.0365 131.373 19.0918 131.373C18.2236 131.373 17.5874 131.782 17.1833 132.601C16.7847 133.415 16.5853 134.616 16.5853 136.205C16.5853 137.401 16.7137 138.362 16.9703 139.089C17.3635 140.197 18.0352 140.751 18.9853 140.751ZM28.3396 130.046C29.8577 130.046 30.9553 130.671 31.6324 131.921C32.1566 132.888 32.4187 134.212 32.4187 135.894C32.4187 137.489 32.1812 138.807 31.7061 139.85C31.0181 141.347 29.8931 142.095 28.3314 142.095C26.9225 142.095 25.8741 141.483 25.186 140.26C24.6126 139.239 24.3259 137.868 24.3259 136.148C24.3259 134.816 24.4979 133.672 24.842 132.716C25.4863 130.936 26.6522 130.046 28.3396 130.046ZM28.3232 140.751C29.0877 140.751 29.6966 140.413 30.1498 139.736C30.603 139.059 30.8297 137.797 30.8297 135.951C30.8297 134.619 30.6658 133.524 30.3382 132.667C30.0106 131.804 29.3744 131.373 28.4297 131.373C27.5614 131.373 26.9252 131.782 26.5211 132.601C26.1225 133.415 25.9232 134.616 25.9232 136.205C25.9232 137.401 26.0515 138.362 26.3082 139.089C26.7014 140.197 27.373 140.751 28.3232 140.751Z" fill="#A3A3A3"/>
<path d="M9.68845 70.7895C10.3383 70.7895 10.8461 70.6093 11.212 70.2489C11.5779 69.883 11.7608 69.4489 11.7608 68.9465C11.7608 68.5096 11.5861 68.1083 11.2366 67.7424C10.8871 67.3765 10.3547 67.1936 9.6393 67.1936C8.92941 67.1936 8.4161 67.3765 8.09937 67.7424C7.78265 68.1083 7.62429 68.5369 7.62429 69.0284C7.62429 69.5799 7.82907 70.0113 8.23862 70.3226C8.64818 70.6339 9.13145 70.7895 9.68845 70.7895ZM9.77855 76.597C10.4611 76.597 11.0263 76.4141 11.4741 76.0482C11.9273 75.6769 12.154 75.1253 12.154 74.3936C12.154 73.6345 11.9219 73.0584 11.4577 72.6653C10.9936 72.2721 10.3983 72.0755 9.67207 72.0755C8.96763 72.0755 8.39152 72.2775 7.94374 72.6816C7.50142 73.0803 7.28027 73.6345 7.28027 74.3444C7.28027 74.956 7.48231 75.4857 7.88641 75.9335C8.29596 76.3758 8.92668 76.597 9.77855 76.597ZM7.68163 71.3547C7.27207 71.1799 6.95262 70.9752 6.72327 70.7404C6.29187 70.3035 6.07617 69.7356 6.07617 69.0366C6.07617 68.1629 6.3929 67.412 7.02634 66.7841C7.65979 66.1561 8.55808 65.8421 9.72121 65.8421C10.8461 65.8421 11.728 66.1397 12.3669 66.7349C13.0058 67.3247 13.3253 68.0154 13.3253 68.8073C13.3253 69.539 13.1396 70.1315 12.7683 70.5847C12.5608 70.8414 12.2386 71.0926 11.8018 71.3383C12.2878 71.5622 12.67 71.8188 12.9485 72.1083C13.4673 72.6543 13.7267 73.3642 13.7267 74.238C13.7267 75.27 13.3799 76.1465 12.6864 76.8673C11.9929 77.5826 11.0127 77.9403 9.74579 77.9403C8.60449 77.9403 7.63794 77.6318 6.84614 77.0147C6.05979 76.3922 5.66662 75.4912 5.66662 74.3117C5.66662 73.6182 5.8359 73.0202 6.17447 72.5178C6.51303 72.01 7.01542 71.6223 7.68163 71.3547ZM19.0017 65.8748C20.5198 65.8748 21.6174 66.5001 22.2945 67.7506C22.8188 68.7172 23.0809 70.0414 23.0809 71.7233C23.0809 73.3178 22.8433 74.6366 22.3683 75.6796C21.6802 77.1758 20.5553 77.9239 18.9935 77.9239C17.5847 77.9239 16.5362 77.3123 15.8482 76.0891C15.2748 75.068 14.9881 73.6973 14.9881 71.9772C14.9881 70.6448 15.1601 69.5008 15.5041 68.5451C16.1485 66.7649 17.3144 65.8748 19.0017 65.8748ZM18.9853 76.5806C19.7498 76.5806 20.3587 76.242 20.812 75.5649C21.2652 74.8878 21.4918 73.6264 21.4918 71.7806C21.4918 70.4482 21.328 69.3533 21.0004 68.496C20.6727 67.6332 20.0365 67.2018 19.0918 67.2018C18.2236 67.2018 17.5874 67.6114 17.1833 68.4305C16.7847 69.2441 16.5853 70.4455 16.5853 72.0345C16.5853 73.2304 16.7137 74.1915 16.9703 74.9178C17.3635 76.0263 18.0352 76.5806 18.9853 76.5806ZM28.3396 65.8748C29.8577 65.8748 30.9553 66.5001 31.6324 67.7506C32.1566 68.7172 32.4187 70.0414 32.4187 71.7233C32.4187 73.3178 32.1812 74.6366 31.7061 75.6796C31.0181 77.1758 29.8931 77.9239 28.3314 77.9239C26.9225 77.9239 25.8741 77.3123 25.186 76.0891C24.6126 75.068 24.3259 73.6973 24.3259 71.9772C24.3259 70.6448 24.4979 69.5008 24.842 68.5451C25.4863 66.7649 26.6522 65.8748 28.3396 65.8748ZM28.3232 76.5806C29.0877 76.5806 29.6966 76.242 30.1498 75.5649C30.603 74.8878 30.8297 73.6264 30.8297 71.7806C30.8297 70.4482 30.6658 69.3533 30.3382 68.496C30.0106 67.6332 29.3744 67.2018 28.4297 67.2018C27.5614 67.2018 26.9252 67.6114 26.5211 68.4305C26.1225 69.2441 25.9232 70.4455 25.9232 72.0345C25.9232 73.2304 26.0515 74.1915 26.3082 74.9178C26.7014 76.0263 27.373 76.5806 28.3232 76.5806Z" fill="#A3A3A3"/>
<path d="M7.35399 12.1659C7.39767 12.9795 7.71166 13.542 8.29596 13.8532C8.5963 14.0171 8.93487 14.099 9.31166 14.099C10.0161 14.099 10.6168 13.8068 11.1137 13.2225C11.6106 12.6328 11.9628 11.4396 12.1703 9.64302C11.8427 10.1618 11.4359 10.5277 10.9499 10.7406C10.4693 10.9481 9.95056 11.0519 9.39357 11.0519C8.2632 11.0519 7.36764 10.6997 6.70689 9.99524C6.0516 9.29081 5.72396 8.38433 5.72396 7.2758C5.72396 6.21095 6.04887 5.27444 6.6987 4.46625C7.34852 3.65806 8.30688 3.25397 9.57377 3.25397C11.283 3.25397 12.4625 4.02393 13.1123 5.56386C13.4727 6.41027 13.6529 7.46965 13.6529 8.742C13.6529 10.1782 13.4372 11.4505 13.0058 12.5591C12.2905 14.4048 11.0782 15.3276 9.36899 15.3276C8.22224 15.3276 7.35125 15.0273 6.75604 14.4266C6.16082 13.8259 5.86321 13.0724 5.86321 12.1659H7.35399ZM9.59015 9.7577C10.1745 9.7577 10.7069 9.56657 11.1874 9.18432C11.6734 8.79661 11.9164 8.12221 11.9164 7.16112C11.9164 6.29833 11.698 5.65669 11.2611 5.23621C10.8297 4.81028 10.2782 4.59731 9.60654 4.59731C8.88572 4.59731 8.31234 4.84031 7.88641 5.32632C7.46593 5.80686 7.25569 6.45123 7.25569 7.25941C7.25569 8.02392 7.44136 8.63279 7.81269 9.08603C8.18402 9.53381 8.77651 9.7577 9.59015 9.7577ZM19.0017 3.27035C20.5198 3.27035 21.6174 3.8956 22.2945 5.14611C22.8188 6.11266 23.0809 7.43689 23.0809 9.11879C23.0809 10.7133 22.8433 12.0321 22.3683 13.0751C21.6802 14.5713 20.5553 15.3195 18.9935 15.3195C17.5847 15.3195 16.5362 14.7079 15.8482 13.4846C15.2748 12.4635 14.9881 11.0928 14.9881 9.37272C14.9881 8.0403 15.1601 6.89628 15.5041 5.94065C16.1485 4.16045 17.3144 3.27035 19.0017 3.27035ZM18.9853 13.9761C19.7498 13.9761 20.3587 13.6375 20.812 12.9604C21.2652 12.2833 21.4918 11.0219 21.4918 9.17613C21.4918 7.84371 21.328 6.74884 21.0004 5.8915C20.6727 5.02871 20.0365 4.59731 19.0918 4.59731C18.2236 4.59731 17.5874 5.00686 17.1833 5.82597C16.7847 6.63962 16.5853 7.84098 16.5853 9.43005C16.5853 10.626 16.7137 11.587 16.9703 12.3133C17.3635 13.4218 18.0352 13.9761 18.9853 13.9761ZM28.3396 3.27035C29.8577 3.27035 30.9553 3.8956 31.6324 5.14611C32.1566 6.11266 32.4187 7.43689 32.4187 9.11879C32.4187 10.7133 32.1812 12.0321 31.7061 13.0751C31.0181 14.5713 29.8931 15.3195 28.3314 15.3195C26.9225 15.3195 25.8741 14.7079 25.186 13.4846C24.6126 12.4635 24.3259 11.0928 24.3259 9.37272C24.3259 8.0403 24.4979 6.89628 24.842 5.94065C25.4863 4.16045 26.6522 3.27035 28.3396 3.27035ZM28.3232 13.9761C29.0877 13.9761 29.6966 13.6375 30.1498 12.9604C30.603 12.2833 30.8297 11.0219 30.8297 9.17613C30.8297 7.84371 30.6658 6.74884 30.3382 5.8915C30.0106 5.02871 29.3744 4.59731 28.4297 4.59731C27.5614 4.59731 26.9252 5.00686 26.5211 5.82597C26.1225 6.63962 25.9232 7.84098 25.9232 9.43005C25.9232 10.626 26.0515 11.587 26.3082 12.3133C26.7014 13.4218 27.373 13.9761 28.3232 13.9761Z" fill="#A3A3A3"/>
<path d="M43.4989 9.57739V444.499H876.13" stroke="#787878" stroke-width="1.20767"/>
<defs>
<linearGradient id="paint0_linear_1_224" x1="52.0692" y1="556.205" x2="852.647" y2="556.205" gradientUnits="userSpaceOnUse">
<stop stop-color="#2C3E50" stop-opacity="0"/>
<stop offset="1" stop-color="#5364FF" stop-opacity="0.4"/>
</linearGradient>
</defs>
</svg>
