<svg width="65" height="55" viewBox="0 0 65 55" fill="none" xmlns="http://www.w3.org/2000/svg">
<path d="M22.1705 10.6796V52.4625C22.1868 53.0027 22.0296 53.5339 21.7221 53.9783C21.4259 54.3919 20.9909 54.6001 20.4172 54.6001C20.007 54.5987 19.603 54.5009 19.2376 54.3146L2.62002 46.0151C2.08907 45.7502 1.64743 45.3355 1.34975 44.8222C1.02498 44.3304 0.845536 43.7569 0.832031 43.1676L0.832031 2.55897C0.832031 2.08395 0.95212 1.67832 1.18963 1.34741C1.30639 1.18393 1.46247 1.05251 1.64344 0.965291C1.82441 0.87807 2.02444 0.837858 2.22506 0.84837C2.55864 0.84837 3.08436 1.02717 3.79956 1.3821L22.0611 10.5035C22.1331 10.5729 22.1705 10.6343 22.1705 10.6796ZM24.4575 14.2796L43.5436 45.1264L24.4575 35.6528V14.2796ZM64.8794 14.9201V52.4625C64.9029 52.9902 64.7233 53.5069 64.3777 53.9063C64.2054 54.0913 63.9949 54.2366 63.7608 54.332C63.5266 54.4274 63.2745 54.4706 63.022 54.4587C62.4482 54.4587 61.8905 54.3039 61.3407 53.9943L45.5798 46.1592L64.8794 14.9201ZM64.7726 10.6449C64.7726 10.717 61.717 15.6967 55.6058 25.5893C49.4947 35.4793 45.9133 41.2676 44.8646 42.9542L30.9263 20.3695L42.5082 1.59826C42.9085 0.931098 43.5303 0.600187 44.3629 0.600187C44.6858 0.597179 45.0049 0.67032 45.2942 0.813678L64.6285 10.4315C64.7246 10.4795 64.7726 10.5515 64.7726 10.6449Z" fill="#D3D3D3"/>
</svg>
