<svg width="73" height="60" viewBox="0 0 73 60" fill="none" xmlns="http://www.w3.org/2000/svg">
<path fill-rule="evenodd" clip-rule="evenodd" d="M5.07625 25.8296C24.5109 17.3622 37.4705 11.78 43.9548 9.08295C62.4688 1.38232 66.3159 0.044642 68.8233 0.000470962C69.3748 -0.00924397 70.6079 0.127432 71.4067 0.775561C72.0811 1.32283 72.2667 2.06211 72.3555 2.58098C72.4443 3.09985 72.5549 4.28184 72.467 5.20542C71.4637 15.747 67.1225 41.3286 64.9139 53.1354C63.9794 58.1312 62.1393 59.8063 60.3579 59.9703C56.4864 60.3265 53.5466 57.4117 49.7969 54.9538C43.9294 51.1075 40.6146 48.7132 34.9191 44.96C28.3371 40.6225 32.6039 38.2385 36.3551 34.3425C37.3367 33.3229 54.3945 17.8075 54.7246 16.4C54.7659 16.224 54.8043 15.5679 54.4144 15.2214C54.0246 14.8749 53.4493 14.9934 53.0341 15.0876C52.4456 15.2212 43.0722 21.4167 24.9137 33.6742C22.2531 35.5012 19.8432 36.3913 17.684 36.3447C15.3037 36.2932 10.7248 34.9988 7.32094 33.8923C3.14593 32.5352 -0.172281 31.8177 0.116661 29.5128C0.267159 28.3123 1.92035 27.0846 5.07625 25.8296Z" fill="#D3D3D3"/>
</svg>
