<svg width="74" height="60" viewBox="0 0 74 60" fill="none" xmlns="http://www.w3.org/2000/svg">
<path d="M73.7658 7.08133C70.9884 8.31584 68.0406 9.12404 65.0219 9.47862C68.1882 7.58521 70.5568 4.60368 71.6851 1.09117C68.7112 2.85275 65.4608 4.09867 62.0714 4.77624C59.9948 2.56476 57.3017 1.02811 54.3413 0.36553C51.3809 -0.29705 48.2898 -0.0550063 45.4686 1.06028C42.6474 2.17557 40.2263 4.11266 38.5193 6.62041C36.8122 9.12816 35.8979 12.0909 35.8948 15.1245C35.8887 16.2863 36.0177 17.4481 36.2851 18.5822C30.2746 18.2694 24.3962 16.7007 19.029 13.9771C13.6618 11.2536 8.92482 7.43557 5.12344 2.76928C3.19756 6.10327 2.61028 10.0444 3.48047 13.7951C4.35065 17.5457 6.6133 20.8257 9.81045 22.9711C7.40543 22.8927 5.05419 22.2393 2.95358 21.0655V21.2622C2.95629 24.7565 4.16661 28.1424 6.37958 30.8466C8.59254 33.5507 11.6721 35.4069 15.0968 36.1008C12.8704 36.7081 10.535 36.8006 8.26758 36.3713C9.23815 39.3736 11.1225 41.9977 13.6573 43.8767C16.1921 45.7558 19.2506 46.7959 22.4054 46.8518C19.2744 49.336 15.6827 51.176 11.8373 52.2658C7.9919 53.3555 3.96886 53.6736 0 53.2015C6.9246 57.6497 14.9836 60.0098 23.2138 60C51.05 60 66.2636 36.9399 66.2636 16.9348V14.9893C69.2097 12.8157 71.7515 10.1385 73.7658 7.08133Z" fill="#D3D3D3"/>
</svg>
